<svg width="243" height="334" viewBox="0 0 243 334" fill="none" xmlns="http://www.w3.org/2000/svg">
<g clip-path="url(#clip0_671_2)">
<ellipse cx="121.5" cy="122.5" rx="86.5" ry="88.5" fill="white"/>
<path d="M121.519 0C54.3958 0 0 54.4049 0 121.539C0 188.673 54.0247 261.893 121.519 334C189.012 261.893 243.037 188.636 243.037 121.539C243.037 54.442 188.604 0 121.519 0ZM121.519 202.849C76.6216 202.849 40.2217 166.443 40.2217 121.539C40.2217 76.6344 76.6216 40.1913 121.519 40.1913C166.415 40.1913 202.852 76.5973 202.852 121.539C202.852 166.48 166.453 202.849 121.519 202.849Z" fill="black"/>
<path d="M128.161 68.0245V89.3634V100.051C128.198 100.534 128.161 101.276 127.456 101.313C126.639 101.313 125.749 101.276 124.858 101.239V67.9874C124.858 66.5772 123.708 65.4639 122.261 65.4639C120.814 65.4639 119.664 66.5772 119.664 67.9874V100.979C119.664 100.979 119.515 100.979 119.478 100.979V101.313H117.178C116.769 101.313 116.398 100.979 116.398 100.571V67.9874C116.398 66.5772 115.248 65.4639 113.801 65.4639C112.354 65.4639 111.204 66.5772 111.204 67.9874V100.571C111.204 103.763 113.875 106.397 117.178 106.397H119.441C119.367 118.941 118.996 174.348 118.996 174.348C119.07 178.653 125.6 178.579 125.637 174.348L125.192 106.435C126.231 106.435 127.27 106.36 128.123 106.36C131.314 106.101 133.726 103.095 133.467 100.051V89.3634V68.0245C133.429 64.7216 128.235 64.7588 128.235 68.0245H128.161Z" fill="black"/>
<path d="M144.635 88.6954C144.635 88.6954 142.817 107.251 144.635 115.527C146.972 126.252 152.798 129.258 152.798 129.258L145.043 173.903C144.82 175.832 146.564 177.502 148.828 177.502H155.173C157.287 177.502 158.994 176.018 158.994 174.199V65.4268C145.599 68.7668 144.635 88.6212 144.635 88.6212V88.6954Z" fill="black"/>
<path d="M87.1964 65.501C78.922 65.501 72.2432 74.9643 72.2432 86.6543C72.2432 97.1196 77.6234 105.767 84.6362 107.474C84.6362 107.585 84.562 107.696 84.562 107.808V174.942C84.562 176.389 85.7122 177.539 87.1593 177.539C88.6064 177.539 89.7567 176.352 89.7567 174.942V107.808C89.7567 107.808 89.6825 107.585 89.6825 107.474C96.7324 105.767 102.076 97.1196 102.076 86.6543C102.076 74.9643 95.3966 65.501 87.1593 65.501H87.1964Z" fill="black"/>
</g>
<defs>
<clipPath id="clip0_671_2">
<rect width="243" height="334" fill="white"/>
</clipPath>
</defs>
</svg>
